<?xml version="1.0" encoding="iso-8859-1"?>
<!-- Uploaded to: SVG Repo, www.svgrepo.com, Generator: SVG Repo Mixer Tools -->
<svg height="800px" width="800px" version="1.1" id="Layer_1" xmlns="http://www.w3.org/2000/svg" xmlns:xlink="http://www.w3.org/1999/xlink" 
	 viewBox="0 0 512 512" xml:space="preserve">
<circle style="fill:#ECE5DD;" cx="256" cy="256" r="247.916"/>
<path style="fill:#D9CBBD;" d="M256,8.084c-10.96,0-21.752,0.72-32.337,2.099C345.304,26.029,439.242,130.04,439.242,256
	s-93.939,229.971-215.579,245.817c10.585,1.379,21.377,2.099,32.337,2.099c136.921,0,247.916-110.996,247.916-247.916
	S392.921,8.084,256,8.084z"/>
<path style="fill:#CD2900;" d="M118.824,407.444c-7.868,0-14.268-6.399-14.268-14.267V118.823c0-7.866,6.401-14.267,14.268-14.267
	h274.353c7.868,0,14.267,6.401,14.267,14.267v274.353c0,7.868-6.401,14.267-14.267,14.267H118.824V407.444z"/>
<g>
	<path style="fill:#ECE5DD;" d="M147.672,227.498v-72.344c0-4.133,3.35-7.483,7.483-7.483h72.344c4.133,0,7.483,3.35,7.483,7.483
		v29.228c0,4.133-3.35,7.483-7.483,7.483h-28.15c-4.133,0-7.483,3.35-7.483,7.483v28.15c0,4.133-3.35,7.483-7.483,7.483h-29.228
		C151.022,234.981,147.672,231.631,147.672,227.498z"/>
	<path style="fill:#ECE5DD;" d="M277.019,356.846v-29.228c0-4.133,3.35-7.483,7.483-7.483h28.15c4.133,0,7.483-3.35,7.483-7.483
		v-28.15c0-4.133,3.35-7.483,7.483-7.483h29.228c4.133,0,7.483,3.35,7.483,7.483v72.344c0,4.133-3.35,7.483-7.483,7.483h-72.344
		C280.369,364.328,277.019,360.978,277.019,356.846z"/>
</g>
<path d="M437.019,74.982C388.667,26.628,324.379,0,256,0S123.333,26.628,74.981,74.982C26.628,123.333,0,187.62,0,256
	s26.628,132.667,74.981,181.019C123.333,485.372,187.62,512,256,512s132.667-26.628,181.019-74.982
	C485.372,388.667,512,324.379,512,256S485.372,123.333,437.019,74.982z M256,495.832C123.756,495.832,16.168,388.244,16.168,256
	S123.756,16.168,256,16.168S495.832,123.756,495.832,256S388.244,495.832,256,495.832z"/>
<path d="M398.821,329.861v63.316c0,3.117-2.527,5.644-5.644,5.644H118.824c-3.117,0-5.645-2.528-5.645-5.645V118.823
	c0-3.117,2.527-5.644,5.644-5.644h274.353c3.117,0,5.644,2.527,5.644,5.644v171.659c0,4.465,3.62,8.084,8.084,8.084l0,0
	c4.465,0,8.084-3.62,8.084-8.084V118.823c0.001-12.047-9.765-21.812-21.811-21.812H118.824c-12.048,0-21.813,9.766-21.813,21.813
	v274.353c0,12.047,9.766,21.812,21.812,21.812h274.353c12.048,0,21.813-9.766,21.813-21.812v-63.316c0-4.465-3.62-8.084-8.084-8.084
	l0,0C402.441,321.776,398.821,325.396,398.821,329.861z"/>
<path d="M234.442,140.126h-86.232c-4.465,0-8.084,3.62-8.084,8.084v24.469c0,4.465,3.62,8.084,8.084,8.084l0,0
	c4.465,0,8.084-3.62,8.084-8.084v-16.385h70.063v26.947h-35.032c-4.465,0-8.084,3.62-8.084,8.084v35.032h-26.947v-14.299
	c0-4.465-3.62-8.084-8.084-8.084l0,0c-4.465,0-8.084,3.62-8.084,8.084v22.384c0,4.465,3.62,8.084,8.084,8.084h43.116
	c4.465,0,8.084-3.62,8.084-8.084v-35.032h35.032c4.465,0,8.084-3.62,8.084-8.084v-43.116
	C242.526,143.746,238.907,140.126,234.442,140.126z"/>
<path d="M363.789,269.474h-43.116c-4.466,0-8.084,3.618-8.084,8.084v35.032h-35.032c-4.466,0-8.084,3.618-8.084,8.084v43.116
	c0,4.466,3.618,8.084,8.084,8.084h86.232c4.466,0,8.084-3.618,8.084-8.084v-86.232C371.874,273.092,368.255,269.474,363.789,269.474
	z M355.705,355.705h-70.063v-26.947h35.032c4.466,0,8.084-3.618,8.084-8.084v-35.032h26.947V355.705z"/>
</svg>